<svg width="883" height="96" viewBox="0 0 883 96" fill="none" xmlns="http://www.w3.org/2000/svg">
<path d="M51.68 94L78.912 13.784H79.504V94H92.38V0.759979H72.104L47.24 76.684H46.796L20.6 0.759979H0.0280151V94H12.016V13.784H12.608L40.876 94H51.68Z" fill="#212121"/>
<path d="M149.536 65.14C149.536 78.164 140.804 86.748 129.408 86.748C122.008 86.748 118.308 82.604 118.308 77.128C118.308 69.284 124.82 67.36 135.032 65.14L149.536 62.032V65.14ZM161.376 52.264C161.376 35.836 151.756 27.548 135.476 27.548C120.232 27.548 110.612 36.428 108.096 48.564L119.048 50.044C120.972 42.496 126.004 37.02 135.328 37.02C144.356 37.02 149.536 42.496 149.536 51.376V53.892L132.072 57.444C116.532 60.552 106.024 65.584 106.024 77.868C106.024 88.968 114.164 95.776 126.744 95.776C137.252 95.776 146.428 90.152 149.98 82.604C150.72 90.3 155.456 95.332 162.116 95.332C167.148 95.332 169.812 93.704 172.032 91.484V84.824C170.256 85.86 167.888 86.304 166.408 86.304C163.3 86.304 161.376 84.676 161.376 81.272V52.264Z" fill="#212121"/>
<path d="M229.807 63.512C229.807 77.72 220.927 86.008 209.235 86.008C196.507 86.008 189.403 76.536 189.403 61.736C189.403 46.936 196.507 37.464 209.235 37.464C220.927 37.464 229.807 45.752 229.807 59.812V63.512ZM229.659 94H241.943V0.759979H229.659V42.94C226.699 34.948 218.559 27.548 206.423 27.548C187.183 27.548 176.823 42.644 176.823 61.736C176.823 80.828 187.183 95.776 206.423 95.776C218.559 95.776 226.699 88.524 229.659 80.532V94Z" fill="#212121"/>
<path d="M307.861 71.06C305.197 80.976 298.833 86.156 288.029 86.156C276.485 86.156 267.457 77.276 266.865 64.696H318.369V59.812C318.369 42.2 307.861 27.548 287.289 27.548C268.641 27.548 254.581 42.2 254.581 62.624C254.581 82.752 268.641 95.776 287.881 95.776C304.013 95.776 314.817 86.896 318.073 72.244L307.861 71.06ZM267.161 56.704C268.641 46.048 275.597 36.872 287.289 36.872C299.573 36.872 305.345 46.344 305.789 56.704H267.161Z" fill="#212121"/>
<path d="M331.579 29.768V94H340.607V29.768H331.579ZM331.283 12.748H340.903V0.759979H331.283V12.748Z" fill="#212121"/>
<path d="M367.345 55.52C367.345 43.088 376.374 35.096 386.586 35.096C397.538 35.096 403.457 42.496 403.457 53.892V94H412.486V54.188C412.486 38.796 405.529 27.992 388.953 27.992C379.333 27.992 370.453 33.764 367.345 41.608V29.768H358.318V94H367.345V55.52Z" fill="#212121"/>
<path d="M450.735 94V55.816H491.435V94H513.931V0.759979H491.435V37.612H450.735V0.759979H428.239V94H450.735Z" fill="#212121"/>
<path d="M577.078 29.176C575.302 27.696 571.898 26.512 567.902 26.512C559.022 26.512 552.214 32.876 549.698 40.276V28.288H528.386V94H549.698V62.92C549.698 51.524 555.618 46.492 564.498 46.492C569.086 46.492 572.342 47.232 575.746 49.156L577.078 29.176Z" fill="#212121"/>
<path d="M622.225 66.176C622.225 75.5 616.009 81.42 608.165 81.42C603.577 81.42 600.617 79.052 600.617 75.204C600.617 70.024 604.761 68.396 611.421 67.064L622.225 64.844V66.176ZM643.241 52.116C643.241 34.208 630.957 26.512 613.789 26.512C594.993 26.512 584.485 36.28 582.265 50.34L602.097 51.82C603.281 46.344 606.389 42.496 612.605 42.496C619.117 42.496 622.225 46.196 622.225 52.412V53.596L603.873 56.852C589.369 59.664 579.897 64.992 579.897 77.572C579.897 88.82 588.185 95.48 601.357 95.48C611.569 95.48 619.709 91.484 623.409 83.936C625.333 91.336 631.105 95.48 638.949 95.48C645.461 95.48 649.605 93.556 652.861 91.188V79.792C650.937 80.68 649.309 80.976 647.385 80.976C644.721 80.976 643.241 79.496 643.241 76.092V52.116Z" fill="#212121"/>
<path d="M707.276 61.884C707.276 72.54 701.208 79.2 692.476 79.2C682.264 79.2 677.528 71.948 677.528 61.144C677.528 50.488 682.264 43.236 692.476 43.236C701.208 43.236 707.276 49.896 707.276 60.404V61.884ZM707.276 94H728.736V0.759979H707.276V40.128C704.168 32.284 696.472 26.512 685.224 26.512C665.836 26.512 655.92 41.904 655.92 61.144C655.92 80.532 665.836 95.776 685.224 95.776C696.472 95.776 704.168 90.004 707.276 82.308V94Z" fill="#212121"/>
<path d="M789.5 70.764C787.132 76.832 782.544 79.644 775.144 79.644C766.856 79.644 760.344 74.612 759.752 65.88H807.112V59.368C807.112 41.46 795.716 26.512 773.96 26.512C753.832 26.512 738.736 41.46 738.736 62.18C738.736 83.048 753.536 95.776 774.404 95.776C791.572 95.776 803.264 87.34 806.668 72.392L789.5 70.764ZM760.048 54.484C761.232 47.528 765.228 42.052 773.812 42.052C781.952 42.052 786.096 47.972 786.54 54.484H760.048Z" fill="#212121"/>
<path d="M814.615 61.144C814.615 82.012 829.563 95.776 850.135 95.776C869.671 95.776 880.623 83.048 882.251 67.212L864.491 65.732C863.011 74.612 858.275 79.496 850.283 79.496C841.995 79.496 836.223 73.724 836.223 61.144C836.223 48.564 841.995 42.792 850.283 42.792C858.275 42.792 863.011 47.528 864.491 56.408L882.251 55.076C880.623 39.388 869.671 26.512 850.135 26.512C829.563 26.512 814.615 40.424 814.615 61.144Z" fill="#212121"/>
</svg>
