<svg width="162" height="50" viewBox="0 0 162 50" fill="none" xmlns="http://www.w3.org/2000/svg">
<path d="M140.098 44.5156C140.098 44.207 140.207 43.9453 140.426 43.7305C140.648 43.5117 140.912 43.4023 141.217 43.4023C141.521 43.4023 141.783 43.5117 142.002 43.7305C142.221 43.9453 142.33 44.207 142.33 44.5156C142.33 44.8203 142.221 45.0801 142.002 45.2949C141.783 45.5098 141.521 45.6172 141.217 45.6172C140.912 45.6172 140.648 45.5098 140.426 45.2949C140.207 45.0801 140.098 44.8203 140.098 44.5156Z" fill="#ED0F67"/>
<path d="M144.813 43.543C144.438 42.8828 144.251 42.1348 144.251 41.2988C144.251 40.4629 144.438 39.7148 144.813 39.0547C145.192 38.3945 145.714 37.8848 146.378 37.5254C147.042 37.1621 147.788 36.9805 148.616 36.9805C149.624 36.9805 150.501 37.2637 151.247 37.8301C151.997 38.3926 152.46 39.1484 152.636 40.0977H150.837C150.704 39.6133 150.438 39.2324 150.04 38.9551C149.641 38.6777 149.167 38.5391 148.616 38.5391C148.096 38.5391 147.636 38.6641 147.233 38.9141C146.831 39.1602 146.522 39.4922 146.307 39.9102C146.096 40.3281 145.991 40.791 145.991 41.2988C145.991 41.8066 146.096 42.2695 146.307 42.6875C146.522 43.1055 146.831 43.4395 147.233 43.6895C147.636 43.9355 148.096 44.0586 148.616 44.0586C149.167 44.0586 149.641 43.9199 150.04 43.6426C150.438 43.3652 150.704 42.9844 150.837 42.5H152.636C152.46 43.4492 151.997 44.207 151.247 44.7734C150.501 45.3359 149.624 45.6172 148.616 45.6172C147.788 45.6172 147.042 45.4375 146.378 45.0781C145.714 44.7148 145.192 44.2031 144.813 43.543Z" fill="#ED0F67"/>
<path d="M154.439 45.5V44.8027L158.699 38.5977H154.562V37.0977H161.283V37.7949L157.023 44H161.459V45.5H154.439Z" fill="#ED0F67"/>
<path d="M140.098 44.5156C140.098 44.207 140.207 43.9453 140.426 43.7305C140.648 43.5117 140.912 43.4023 141.217 43.4023C141.521 43.4023 141.783 43.5117 142.002 43.7305C142.221 43.9453 142.33 44.207 142.33 44.5156C142.33 44.8203 142.221 45.0801 142.002 45.2949C141.783 45.5098 141.521 45.6172 141.217 45.6172C140.912 45.6172 140.648 45.5098 140.426 45.2949C140.207 45.0801 140.098 44.8203 140.098 44.5156Z" stroke="#ED0F67" stroke-width="0.8"/>
<path d="M144.813 43.543C144.438 42.8828 144.251 42.1348 144.251 41.2988C144.251 40.4629 144.438 39.7148 144.813 39.0547C145.192 38.3945 145.714 37.8848 146.378 37.5254C147.042 37.1621 147.788 36.9805 148.616 36.9805C149.624 36.9805 150.501 37.2637 151.247 37.8301C151.997 38.3926 152.46 39.1484 152.636 40.0977H150.837C150.704 39.6133 150.438 39.2324 150.04 38.9551C149.641 38.6777 149.167 38.5391 148.616 38.5391C148.096 38.5391 147.636 38.6641 147.233 38.9141C146.831 39.1602 146.522 39.4922 146.307 39.9102C146.096 40.3281 145.991 40.791 145.991 41.2988C145.991 41.8066 146.096 42.2695 146.307 42.6875C146.522 43.1055 146.831 43.4395 147.233 43.6895C147.636 43.9355 148.096 44.0586 148.616 44.0586C149.167 44.0586 149.641 43.9199 150.04 43.6426C150.438 43.3652 150.704 42.9844 150.837 42.5H152.636C152.46 43.4492 151.997 44.207 151.247 44.7734C150.501 45.3359 149.624 45.6172 148.616 45.6172C147.788 45.6172 147.042 45.4375 146.378 45.0781C145.714 44.7148 145.192 44.2031 144.813 43.543Z" stroke="#ED0F67" stroke-width="0.8"/>
<path d="M154.439 45.5V44.8027L158.699 38.5977H154.562V37.0977H161.283V37.7949L157.023 44H161.459V45.5H154.439Z" stroke="#ED0F67" stroke-width="0.8"/>
<path d="M64.9219 46V29.1953H68.4023V43H75.7148V46H64.9219Z" fill="#4B2F3A"/>
<path d="M77.8828 46V29.1953H88.9219V32.1953H81.3633V35.875H88.1953V38.875H81.3633V43H88.9219V46H77.8828Z" fill="#4B2F3A"/>
<path d="M90.1172 29.1953H93.7383L98.2734 40.293L102.809 29.1953H106.441L99.457 46H97.1016L90.1172 29.1953Z" fill="#4B2F3A"/>
<path d="M108.352 46V29.1953H110.555L119.625 39.4492V29.1953H123.105V46H120.926L111.832 35.6992V46H108.352Z" fill="#4B2F3A"/>
<path d="M126.961 46V29.1953H138V32.1953H130.441V35.875H137.273V38.875H130.441V43H138V46H126.961ZM128.402 24.7656H131.273L132.504 26.2422L133.723 24.7656H136.559L134.309 28H130.699L128.402 24.7656Z" fill="#4B2F3A"/>
<path d="M64.9219 23V6.19531H70.9219C72.5859 6.19531 73.9609 6.68359 75.0469 7.66016C76.1328 8.63672 76.6758 9.87109 76.6758 11.3633C76.6758 12.8555 76.1328 14.0898 75.0469 15.0664C73.9609 16.0352 72.5859 16.5195 70.9219 16.5195H68.4023V23H64.9219ZM68.4023 13.5195H70.9219C71.6562 13.5195 72.2188 13.3164 72.6094 12.9102C73 12.5039 73.1953 11.9883 73.1953 11.3633C73.1953 10.7383 73 10.2227 72.6094 9.81641C72.2188 9.40234 71.6562 9.19531 70.9219 9.19531H68.4023V13.5195Z" fill="#4B2F3A"/>
<path d="M79.3359 23V6.19531H82.8164V20H90.1289V23H79.3359Z" fill="#4B2F3A"/>
<path d="M92.2969 23V6.19531H103.336V9.19531H95.7773V12.875H102.609V15.875H95.7773V20H103.336V23H92.2969Z" fill="#4B2F3A"/>
<path d="M106.453 23V6.19531H108.656L117.727 16.4492V6.19531H121.207V23H119.027L109.934 12.6992V23H106.453Z" fill="#4B2F3A"/>
<path d="M125.062 23V6.19531H128.543V12.125L133.992 6.19531H138.234L131.297 13.7305L139.582 23H135.07L128.543 15.7812V23H125.062Z" fill="#4B2F3A"/>
<path d="M139.078 6.19531H142.875L146.684 12.582L150.504 6.19531H154.289L148.418 15.9688V23H144.961V15.9688L139.078 6.19531Z" fill="#4B2F3A"/>
<path d="M27.8554 50L26.9025 49.1583C6.41423 31.4815 0.855408 25.2525 0.855408 15.1515C0.855408 6.73401 7.20835 0 15.1495 0C21.6613 0 25.3142 3.87206 27.8554 6.90236C30.3966 3.87206 34.0495 0 40.5613 0C48.5025 0 54.8554 6.73401 54.8554 15.1515C54.8554 25.2525 49.2966 31.4815 28.8083 49.1583L27.8554 50Z" fill="url(#paint0_linear)"/>
<path d="M39.9207 12.9962C39.8047 12.8571 39.6815 12.7221 39.5517 12.5923C39.4213 12.4619 39.2863 12.3387 39.1472 12.2227C37.7634 11.0679 35.9562 10.7096 34.1911 11.2398C32.3439 11.7946 30.9124 13.221 30.3611 15.0564C30.1451 15.775 29.9069 16.4212 29.6539 17.0043C26.2725 14.1813 22.0021 11.6555 20.3663 13.2918C19.5 14.1582 19.7304 15.8725 21.0341 18.2489C21.1701 18.4969 21.3184 18.7499 21.474 19.006C20.3766 19.4423 19.3911 20.0741 18.5514 20.9133C15.1495 24.3152 15.1495 29.8508 18.5514 33.2532C20.2524 34.9542 22.4866 35.8047 24.7214 35.8047C26.9561 35.8047 29.1904 34.9542 30.8913 33.2532C31.731 32.4135 32.3624 31.428 32.7986 30.3307C33.0542 30.4862 33.3078 30.6345 33.5557 30.7705C34.9898 31.5569 36.1826 31.9531 37.0936 31.9531C37.6926 31.9531 38.1694 31.7822 38.5133 31.4383C40.0896 29.8621 37.8543 25.8884 35.0986 22.5085C35.6914 22.2488 36.3515 22.0045 37.088 21.7828C38.9229 21.2315 40.3498 19.7995 40.9046 17.9528C41.4338 16.1861 41.0761 14.38 39.9207 12.9962ZM27.3375 26.0475C27.3698 26.0783 27.4017 26.1101 27.434 26.1404C27.4725 26.1763 27.511 26.2102 27.549 26.2461C27.5597 26.2564 27.5705 26.2656 27.5813 26.2759C27.7763 26.4581 27.9714 26.6372 28.1674 26.8133C28.227 26.8672 28.2865 26.9231 28.3461 26.976C28.3507 26.9801 28.3558 26.9842 28.3604 26.9883C28.3815 27.0068 28.4025 27.0242 28.4236 27.0427C28.6561 27.2485 28.8886 27.4492 29.1216 27.6453C29.1616 27.6792 29.2022 27.7151 29.2422 27.7484C29.4989 27.963 29.755 28.1693 30.0106 28.371C30.0681 28.4167 30.1256 28.4624 30.183 28.5076C29.931 29.4787 29.4265 30.361 28.713 31.0749C26.5117 33.2758 22.9301 33.2763 20.7282 31.0749C18.5268 28.8735 18.5268 25.2914 20.7282 23.0901C21.4416 22.3766 22.3239 21.8726 23.2955 21.6201C23.3402 21.6776 23.3864 21.735 23.4321 21.7925C23.6338 22.0481 23.8406 22.3042 24.0547 22.5609C24.0885 22.6009 24.124 22.6415 24.1578 22.6815C24.3539 22.914 24.5551 23.147 24.7604 23.3795C24.7789 23.4006 24.7963 23.4216 24.8148 23.4427C24.8189 23.4473 24.823 23.4524 24.8271 23.457C24.88 23.5166 24.9365 23.5761 24.9898 23.6357C25.1659 23.8312 25.345 24.0268 25.5272 24.2218C25.5375 24.2326 25.5467 24.2434 25.557 24.2541C25.5929 24.2926 25.6268 24.3311 25.6627 24.3691C25.693 24.4014 25.7253 24.4333 25.7556 24.4656C26.0107 24.734 26.2694 25.0015 26.5348 25.2673C26.8001 25.5332 27.0691 25.7924 27.3375 26.0475ZM30.1656 32.5269C27.164 35.529 22.2798 35.5295 19.2777 32.5269C16.2756 29.5249 16.2756 24.6406 19.2777 21.6391C20.064 20.8533 20.9884 20.2609 22.0303 19.8765C22.0976 19.9766 22.1705 20.0787 22.2403 20.1798C22.3486 20.3369 22.4579 20.4945 22.5718 20.6526C22.5949 20.6849 22.616 20.7162 22.6391 20.7485C21.649 21.0729 20.7477 21.6206 20.0035 22.3648C17.4022 24.966 17.4022 29.1994 20.0035 31.8012C21.3046 33.1018 23.0132 33.7521 24.7214 33.7521C26.43 33.7521 28.1387 33.1018 29.4393 31.8012C30.1836 31.057 30.7312 30.1557 31.0556 29.1656C31.0879 29.1892 31.1197 29.2097 31.1516 29.2328C31.3102 29.3468 31.4672 29.4561 31.6243 29.5644C31.7254 29.6342 31.8275 29.7071 31.9276 29.7743C31.5432 30.8162 30.9514 31.7406 30.1656 32.5269ZM37.7871 30.712C37.4098 31.0888 36.2308 31.0662 34.049 29.8703C33.5988 29.6234 33.1307 29.3349 32.6544 29.0213C32.5189 28.932 32.3829 28.8417 32.2464 28.7478C32.134 28.6708 32.0205 28.5902 31.9071 28.5096C31.7659 28.4095 31.6248 28.31 31.4821 28.2053C31.341 28.1011 31.1988 27.9912 31.0566 27.8824C31.0356 27.866 31.014 27.8501 30.993 27.8336C30.741 27.6396 30.4884 27.4389 30.2364 27.2336C30.1743 27.1828 30.1122 27.1336 30.0496 27.0817C29.8094 26.8831 29.5697 26.6778 29.33 26.4694C29.273 26.4196 29.2155 26.3714 29.1586 26.3211C29.1144 26.2821 29.0698 26.242 29.0256 26.2025C28.8188 26.0187 28.6125 25.8304 28.4066 25.6394C28.3748 25.6097 28.343 25.5814 28.3107 25.5517C28.2439 25.4896 28.1772 25.428 28.1105 25.3648C27.8261 25.0959 27.5428 24.8228 27.261 24.5416C26.9798 24.2603 26.7067 23.9765 26.4377 23.6921C26.3746 23.6254 26.313 23.5587 26.2509 23.4919C26.2212 23.4601 26.1924 23.4283 26.1632 23.396C25.9722 23.1901 25.7838 22.9838 25.6001 22.777C25.5606 22.7328 25.5205 22.6882 25.4815 22.644C25.4312 22.5865 25.383 22.5296 25.3332 22.4726C25.1248 22.2329 24.919 21.9932 24.7209 21.753C24.669 21.6904 24.6203 21.6283 24.569 21.5662C24.3636 21.3142 24.163 21.0622 23.9689 20.8096C23.9525 20.7886 23.9366 20.767 23.9202 20.746C23.8114 20.6038 23.7015 20.4616 23.5973 20.3205C23.4926 20.1783 23.3931 20.0372 23.293 19.8955C23.2124 19.7821 23.1318 19.6686 23.0548 19.5562C22.9609 19.4197 22.8706 19.2837 22.7813 19.1482C22.4676 18.6719 22.1797 18.2038 21.9323 17.7536C20.7364 15.5728 20.7133 14.3928 21.0906 14.0155C21.2425 13.8636 21.4837 13.7871 21.803 13.7871C23.1503 13.7871 25.8896 15.1504 29.1894 17.9513C29.138 18.0452 29.0877 18.1468 29.0354 18.2356C29.0308 18.2433 29.0261 18.2515 29.0215 18.2592C28.9014 18.4609 28.7787 18.6478 28.654 18.8202C28.6499 18.8259 28.6458 18.8315 28.6417 18.8371C28.517 19.0081 28.3907 19.1631 28.2624 19.3032C28.2568 19.3094 28.2516 19.315 28.246 19.3206C28.1192 19.4577 27.9904 19.5793 27.86 19.6856C27.8518 19.6922 27.8431 19.6984 27.8349 19.7051C27.7045 19.8093 27.5726 19.8991 27.4396 19.9709L26.795 20.3184L27.3411 20.806C27.9288 21.3306 28.5036 21.8731 29.0487 22.4182C29.8243 23.1937 30.5788 24.0129 31.2907 24.8526L31.7911 25.4429L31.7916 25.4434L32.1406 24.7525C32.2094 24.617 32.2972 24.4825 32.3993 24.3491C32.4055 24.3414 32.4106 24.3332 32.4168 24.325C32.5204 24.1926 32.6411 24.0617 32.7771 23.9323C32.7832 23.9267 32.7894 23.9205 32.7956 23.9144C32.9341 23.784 33.0886 23.6557 33.2585 23.5294C33.2647 23.5248 33.2714 23.5202 33.278 23.515C33.4495 23.3888 33.6363 23.2641 33.8385 23.1424C33.8467 23.1373 33.856 23.1327 33.8642 23.1275C33.9535 23.0741 34.0567 23.0228 34.1516 22.9705C37.3811 26.8774 38.5431 29.956 37.7871 30.712ZM39.9207 17.6572C39.4654 19.1728 38.2957 20.3477 36.7918 20.7999C36.0394 21.0262 35.211 21.3229 34.4164 21.6909L34.4077 21.6806L34.0469 21.8613C34.0253 21.8721 34.0079 21.8834 33.9868 21.8942C33.8698 21.9537 33.7584 22.0194 33.644 22.0825C33.0686 22.4007 32.5774 22.738 32.1817 23.0952C32.154 23.1198 32.1222 23.1424 32.0955 23.1676C31.921 23.3318 31.7634 23.4991 31.6269 23.6706C31.3887 23.399 31.1439 23.1321 30.898 22.8663C30.5295 22.4675 30.1564 22.0743 29.776 21.6935C29.3685 21.2859 28.945 20.8799 28.5124 20.4822C28.6812 20.3446 28.8465 20.186 29.0077 20.0115C29.0369 19.9797 29.0636 19.9417 29.0924 19.9088C29.4306 19.5254 29.7509 19.0568 30.0537 18.5107C30.1261 18.3803 30.2 18.252 30.2677 18.1181C30.278 18.098 30.2888 18.0816 30.2985 18.0616L30.4751 17.7059L30.4658 17.6977C30.8282 16.9109 31.1208 16.0922 31.3435 15.3511C31.7957 13.8472 32.9701 12.678 34.4862 12.2227C35.9167 11.7936 37.3749 12.0805 38.4892 13.0101C38.6047 13.1065 38.7166 13.2087 38.8259 13.318C38.9342 13.4258 39.0369 13.5382 39.1328 13.6532C40.0624 14.768 40.3498 16.2272 39.9207 17.6572Z" fill="white" stroke="white" stroke-width="1.05"/>
<path d="M35.7467 13.9079C34.6306 13.8098 33.7275 14.6383 33.2944 15.5205C33.107 15.7336 33.1281 16.0579 33.3406 16.2453C33.5546 16.4326 33.8779 16.4116 34.0653 16.1991C35.0419 14.5183 36.4167 14.5569 37.4005 16.1991C37.5021 16.3146 37.6438 16.3731 37.7859 16.3731C37.906 16.3731 38.0272 16.331 38.1247 16.2453C38.3377 16.0579 38.3582 15.7336 38.1709 15.5205C37.8029 14.6792 36.8243 13.8678 35.7467 13.9079Z" fill="white" stroke="white" stroke-width="0.4"/>
<defs>
<linearGradient id="paint0_linear" x1="-22" y1="-19.5" x2="51" y2="54" gradientUnits="userSpaceOnUse">
<stop stop-color="#ED0F67"/>
<stop offset="1" stop-color="#C91C60"/>
</linearGradient>
</defs>
</svg>