<svg width="694" height="144" viewBox="0 0 694 144" fill="none" xmlns="http://www.w3.org/2000/svg">
<path d="M12.1428 25.6575V43.9558H0V70.2099H12.1428V104.619C12.1428 119.536 15.3278 129.083 21.2997 135.05C26.4754 140.221 35.2341 144 45.7845 144C54.9413 144 62.9039 142.807 67.0842 141.215V113.967C64.0982 114.762 62.7048 114.762 58.5245 114.762C49.7657 114.762 47.1779 109.989 47.1779 98.2541V70.2099H67.4823V43.9558H47.1779V16.1105L12.1428 25.6575Z" fill="#212121"/>
<path d="M75.3888 43.9558L103.457 141.812H137.297L144.663 112.376C146.653 104.022 148.246 95.4696 149.639 82.9392H150.037C152.028 95.4696 153.421 103.624 155.412 112.773L162.18 141.812H196.021L225.283 43.9558H190.248L184.475 78.3646C182.485 89.5028 180.693 100.84 179.499 112.376H179.101C177.508 100.84 174.92 89.7017 172.731 78.7624L165.166 43.9558H137.098L129.335 80.1547C127.344 89.5028 124.557 100.84 122.766 112.376H122.368C120.974 100.84 119.183 89.7017 117.59 79.9558L112.016 43.9558H75.3888Z" fill="#212121"/>
<path d="M324.208 105.414C324.805 103.028 325.602 97.6574 325.602 91.8895C325.602 65.0387 312.065 41.768 280.414 41.768C244.384 41.768 229.653 71.2044 229.653 93.8784C229.653 124.906 249.161 144 283.599 144C295.742 144 308.482 142.409 320.227 137.834L315.648 113.768C306.89 116.552 298.131 117.547 288.974 117.547C276.234 117.547 265.086 113.171 263.892 105.414H324.208ZM263.494 81.1492C264.091 74.9834 268.072 65.2376 278.623 65.2376C289.969 65.2376 292.557 75.5801 292.557 81.1492H263.494Z" fill="#212121"/>
<path d="M341.738 141.812H377.768V86.3204C377.768 83.7348 377.967 80.9503 378.764 79.1602C380.356 75.3812 383.541 70.6077 390.508 70.6077C399.267 70.6077 403.049 77.1713 403.049 88.5083V141.812H439.08V84.1326C439.08 57.2818 426.539 41.768 403.647 41.768C387.323 41.768 377.768 51.3149 374.185 56.4862H373.588L371.996 43.9558H340.942C341.34 53.105 341.738 64.2431 341.738 77.3702V141.812Z" fill="#212121"/>
<path d="M463.922 25.6575V43.9558H451.779V70.2099H463.922V104.619C463.922 119.536 467.107 129.083 473.079 135.05C478.255 140.221 487.014 144 497.564 144C506.721 144 514.683 142.807 518.864 141.215V113.967C515.878 114.762 514.484 114.762 510.304 114.762C501.545 114.762 498.957 109.989 498.957 98.2541V70.2099H519.262V43.9558H498.957V16.1105L463.922 25.6575Z" fill="#212121"/>
<path d="M571.777 141.812V43.9558H535.747V141.812H571.777ZM553.861 0C542.714 0 535.548 7.16022 535.548 17.105C535.548 26.453 542.515 34.0111 553.662 34.0111C565.009 34.0111 572.175 26.453 572.175 17.105C571.976 7.16022 565.009 0 553.861 0Z" fill="#212121"/>
<path d="M643.04 41.768C609.597 41.768 589.094 62.453 589.094 93.6796C589.094 125.503 611.787 144 641.049 144C668.52 144 694 127.492 694 91.8895C694 62.453 673.696 41.768 643.04 41.768ZM642.045 67.0276C652.595 67.0276 656.974 79.3591 656.974 92.884C656.974 108.597 651.799 118.74 642.045 118.74C630.897 118.74 626.12 107.602 626.12 92.884C626.12 79.9558 630.101 67.0276 642.045 67.0276Z" fill="#212121"/>
</svg>
